<?xml version="1.0" standalone="no"?>
<!DOCTYPE svg PUBLIC "-//W3C//DTD SVG 20010904//EN"
 "http://www.w3.org/TR/2001/REC-SVG-20010904/DTD/svg10.dtd">
<svg version="1.0" xmlns="http://www.w3.org/2000/svg"
 width="665.000000pt" height="375.000000pt" viewBox="0 0 665.000000 375.000000"
 preserveAspectRatio="xMidYMid meet">
<metadata>
Created by potrace 1.16, written by Peter Selinger 2001-2019
</metadata>
<g transform="translate(0.000000,375.000000) scale(0.100000,-0.100000)"
fill="#000000" stroke="none">
<path d="M2005 2163 c-48 -13 -93 -39 -126 -75 -30 -31 -38 -48 -43 -91 -3
-28 -3 -65 0 -82 8 -48 5 -98 -6 -109 -13 -13 -13 -65 1 -107 27 -80 113 -151
197 -164 50 -7 135 10 165 34 99 80 125 149 99 259 -6 24 -7 55 -3 70 8 26 7
53 -4 117 -6 36 -51 86 -108 119 -43 25 -131 40 -172 29z m137 -124 c29 -21
58 -72 58 -104 0 -11 -11 -15 -39 -15 -50 0 -71 -21 -71 -69 0 -30 5 -40 30
-54 16 -10 42 -17 57 -15 26 3 28 1 26 -32 -1 -26 -11 -44 -42 -72 -37 -35
-44 -38 -102 -38 -56 0 -64 3 -94 33 -55 55 -61 124 -11 111 37 -9 86 29 86
66 0 47 -31 75 -80 73 l-42 -2 7 37 c4 20 14 45 23 56 43 48 143 61 194 25z"/>
<path d="M1461 2138 c-64 -34 -86 -68 -88 -136 -1 -41 4 -64 17 -82 28 -39 77
-85 108 -101 79 -41 131 -88 132 -120 0 -8 -9 -25 -20 -37 -28 -30 -99 -29
-163 2 l-49 24 -19 -46 c-23 -53 -20 -58 56 -90 78 -32 118 -36 173 -18 95 32
147 126 123 223 -14 54 -53 95 -136 139 -91 49 -125 104 -85 136 28 23 88 23
151 1 54 -20 60 -17 84 40 l15 38 -47 21 c-32 14 -75 23 -128 25 -70 4 -86 1
-124 -19z"/>
<path d="M2435 2151 c-8 -14 -13 -70 -20 -211 -3 -69 -10 -185 -16 -259 -12
-150 -10 -153 51 -147 31 3 36 7 41 37 10 49 29 228 29 269 l0 35 23 -37 c182
-302 195 -320 225 -302 9 6 29 32 44 59 14 27 31 56 37 64 6 9 32 50 59 91 85
135 79 131 87 58 5 -35 9 -76 10 -93 9 -115 18 -175 29 -176 39 -5 72 -4 82 3
12 9 11 34 -21 367 -13 134 -27 246 -30 249 -11 11 -39 -14 -65 -56 -14 -23
-52 -85 -84 -139 -32 -54 -75 -123 -95 -153 -20 -30 -41 -67 -48 -82 -7 -16
-16 -28 -20 -28 -4 0 -39 53 -78 118 -38 64 -79 131 -92 147 -12 17 -27 41
-33 55 -12 27 -23 47 -55 95 -28 43 -48 55 -60 36z"/>
<path d="M3350 2146 c-5 -5 -5 -19 1 -33 5 -13 19 -66 30 -116 12 -51 32 -128
45 -172 13 -44 26 -98 30 -120 11 -71 48 -170 64 -170 10 0 53 77 121 213 58
118 109 213 115 211 5 -1 16 -20 25 -43 28 -71 180 -364 196 -377 35 -30 41
-16 201 453 34 102 47 150 39 155 -11 7 -98 5 -106 -3 -2 -2 -32 -87 -66 -189
-35 -102 -65 -188 -67 -190 -2 -3 -22 32 -43 78 -129 273 -150 312 -173 315
-32 5 -65 -37 -115 -148 -24 -52 -57 -124 -73 -160 l-31 -65 -12 60 c-16 83
-70 297 -76 303 -9 9 -96 7 -105 -2z"/>
<path d="M4296 2150 c-7 -13 0 -596 6 -606 6 -8 77 -11 240 -10 l233 1 3 53 3
52 -190 0 -191 0 0 73 0 73 167 3 c92 1 171 5 175 7 5 3 8 25 8 50 l0 44 -173
0 -172 0 -2 75 -1 75 188 0 c119 0 190 4 192 10 2 6 2 30 0 55 l-4 44 -240 3
c-132 2 -241 1 -242 -2z"/>
<path d="M4874 2149 c-6 -10 -6 -598 0 -608 9 -14 326 -2 372 15 50 18 91 72
95 124 5 81 0 101 -35 136 l-35 35 30 43 c33 50 37 91 12 144 -41 89 -96 111
-286 114 -82 2 -151 0 -153 -3z m316 -131 c27 -30 26 -73 -5 -103 -22 -23 -32
-25 -115 -25 l-90 0 0 75 0 75 95 0 c84 0 96 -2 115 -22z m25 -263 c27 -26 31
-51 12 -76 -23 -31 -56 -39 -151 -39 l-96 0 0 70 0 70 105 0 c99 0 107 -2 130
-25z"/>
<path d="M3210 1923 c-44 -18 -53 -78 -16 -113 45 -41 106 -21 121 40 12 49
-52 93 -105 73z"/>
<path d="M17 1872 c-11 -2 -17 -11 -15 -20 3 -13 17 -17 63 -19 33 -2 67 -4
75 -4 8 -1 239 -1 513 -1 l497 2 0 24 0 23 -558 -1 c-307 -1 -566 -3 -575 -4z"/>
<path d="M5482 1864 c-43 -31 -3 -34 486 -34 563 0 682 5 682 29 0 14 -55 16
-577 16 -402 0 -581 -3 -591 -11z"/>
</g>
</svg>
