<?xml version="1.0" encoding="UTF-8" standalone="no"?>
<!-- Created with Inkscape (http://www.inkscape.org/) -->

<svg
   version="1.1"
   id="svg2"
   xml:space="preserve"
   width="628.80316"
   height="382.43625"
   viewBox="0 0 628.80317 382.43624"
   sodipodi:docname="4c2cb4ec9187008db440c9971bd7e964.ai"
   xmlns:inkscape="http://www.inkscape.org/namespaces/inkscape"
   xmlns:sodipodi="http://sodipodi.sourceforge.net/DTD/sodipodi-0.dtd"
   xmlns="http://www.w3.org/2000/svg"
   xmlns:svg="http://www.w3.org/2000/svg"><defs
     id="defs6"><clipPath
       clipPathUnits="userSpaceOnUse"
       id="clipPath16"><path
         d="M 0,841.89 H 595.28 V 0 H 0 Z"
         id="path14" /></clipPath></defs><sodipodi:namedview
     id="namedview4"
     pagecolor="#ffffff"
     bordercolor="#666666"
     borderopacity="1.0"
     inkscape:pageshadow="2"
     inkscape:pageopacity="0.0"
     inkscape:pagecheckerboard="0" /><g
     id="g8"
     inkscape:groupmode="layer"
     inkscape:label="4c2cb4ec9187008db440c9971bd7e964"
     transform="matrix(1.3333333,0,0,-1.3333333,-82.777198,751.90211)"><g
       id="g10"><g
         id="g12"
         clip-path="url(#clipPath16)"><g
           id="g18"
           transform="translate(327.96,458.7373)"><path
             d="m 0,0 c 8.212,-3.348 16.425,-6.695 24.539,-10.004 -8.42,0.291 -25.306,6.943 -31.226,12.591 -1.496,1.427 -2.431,3.452 -3.575,5.234 -0.885,1.38 -1.352,3.389 -2.593,4.124 -8.17,4.836 -8.088,12.635 -6.991,20.3 1.462,10.19 6.099,18.887 12.215,27.436 3.148,4.4 7.308,7.675 10.577,11.759 5.224,6.524 12.023,12.308 21.128,13.826 1.679,0.279 3.155,1.688 4.76,2.509 6.004,3.077 11.851,6.575 18.118,8.967 2.569,0.981 6.23,0.052 9.082,-0.922 2.869,-0.981 3.327,-3.321 0.258,-5.024 -4.61,-2.557 -9.334,-4.908 -14.346,-7.522 0.9,-1.01 1.72,-1.931 2.825,-3.171 -0.681,-1.014 -1.418,-2.114 -2.921,-4.355 5.031,2.33 8.915,4.128 12.799,5.928 0.35,-0.493 0.701,-0.987 1.05,-1.48 C 53.403,78.109 51.302,75.743 48.78,73.981 35.2,64.493 22.436,54.156 12.761,40.495 10.034,36.644 7.499,32.656 4.356,27.955 c 7.335,-3.068 13.996,-5.853 21.801,-9.118 -6.726,-0.276 -11.319,6.044 -17.562,2.59 5.39,-6.77 20.378,-8.946 39.728,-13.147 -4.432,1.959 -8.863,3.919 -13.296,5.878 0.15,0.413 0.299,0.826 0.449,1.239 5.718,-1.769 11.436,-3.536 18.255,-5.646 -3.903,-3.709 -5.561,-7.382 -1.639,-10.299 1.394,-1.037 4.537,0.278 6.881,0.519 0.022,0.421 0.046,0.841 0.068,1.261 1.685,-0.965 3.422,-1.852 5.04,-2.919 1.652,-1.089 3.187,-2.355 5.354,-3.232 -1.257,2.176 -2.514,4.353 -3.77,6.529 0.143,0.208 0.287,0.416 0.43,0.624 1.495,-1.09 3.663,-1.857 4.37,-3.326 3.342,-6.944 6.542,-14.453 2.925,-21.904 -3.208,-6.605 -7.59,-12.838 -12.448,-18.359 -2.499,-2.84 -6.999,-4.381 -10.885,-5.46 -18.608,-5.164 -37.109,-11.268 -56.749,-10.731 -6.209,0.17 -12.384,1.62 -18.545,1.925 21.684,-8.326 42.819,-4.976 63.698,3.803 0.25,-0.366 0.499,-0.731 0.749,-1.096 -1.642,-1.166 -3.127,-2.748 -4.948,-3.431 -13.254,-4.974 -26.612,-9.765 -41.122,-8.457 -5.735,0.517 -11.654,1.004 -17.02,2.859 -3.291,1.137 -5.659,4.883 -8.506,7.382 -1.927,1.693 -3.864,3.41 -5.981,4.841 -3.973,2.686 -7.882,5.157 -6.076,11.131 0.272,0.896 -1.407,2.564 -2.436,3.631 -1.71,1.772 -3.625,3.348 -6.037,5.535 3.585,0.612 5.864,1.002 8.743,1.494 -5.482,7.176 -5.41,7.321 0.862,13.483 0.935,0.918 1.2,2.518 1.491,3.168 3.673,0.174 7.143,0.339 10.136,0.48 0.619,-2.527 1.276,-5.213 1.932,-7.899 1.635,0.517 3.269,1.034 4.413,1.396 3.831,-4.143 7.404,-8.526 11.56,-12.262 1.799,-1.618 4.772,-2.583 7.256,-2.675 10.181,-0.377 20.25,0.264 29.873,4.352 3.775,1.604 7.929,2.336 11.929,3.397 6.915,1.833 11.268,6.794 14.919,12.453 0.497,0.771 -0.094,3.184 -0.895,3.675 -2.368,1.451 -5.114,3.301 -7.676,3.25 C 29.074,-5.361 17.585,-1.032 5.828,2.269 4.162,2.737 2.253,2.333 0.455,2.333 0.304,1.556 0.151,0.778 0,0"
             style="fill:#231f20;fill-opacity:1;fill-rule:evenodd;stroke:none"
             id="path20" /></g><g
           id="g22"
           transform="translate(93.2759,477.5508)"><path
             d="m 0,0 c 0.655,-0.087 1.31,-0.174 1.964,-0.261 0.551,4.432 1.1,8.864 1.65,13.295 C 3.078,13.106 2.542,13.178 2.005,13.25 1.337,8.833 0.668,4.417 0,0 m 46.025,17.594 c -0.299,0.516 -0.599,1.033 -0.899,1.55 -1.335,-0.737 -2.67,-1.474 -4.006,-2.21 0.884,1.983 2.201,3.351 3.714,4.447 5.7,4.13 8.729,9.757 9.883,16.613 0.915,5.435 -2.239,8.88 -5.878,11.765 -2.15,1.706 -5.248,3.211 -7.052,-1.02 -0.103,-0.242 -0.918,-0.192 -1.404,-0.26 -3.324,-0.47 -6.65,-0.926 -9.972,-1.404 C 27.172,46.61 25.693,44.856 25.313,41.466 24.423,33.525 22.909,25.652 22.077,17.707 21.608,13.232 21.993,8.668 21.993,2.945 30.719,8.264 38.372,12.929 46.025,17.594 M 15.942,-97.241 c -0.643,4.177 -1.236,8.034 -1.811,11.771 -1.832,0.327 -3.417,0.611 -5.298,0.947 -0.884,-1.703 -1.981,-3.815 -3.078,-5.927 -0.292,0.108 -0.586,0.217 -0.879,0.326 0.274,1.982 0.548,3.965 0.853,6.177 -6.225,-2.079 -10.179,0.996 -12.077,6.783 -3.859,11.763 -1.085,23.553 -1.054,35.303 0.012,4.769 1.824,9.534 2.888,14.643 h -13.254 c 2.168,1.664 4.957,3.804 7.724,5.927 -2.049,0.733 -3.974,0.867 -4.86,1.896 -0.867,1.006 -0.673,2.925 -1.009,4.809 -4.559,-1.039 -9.658,-2.2 -14.757,-3.361 -0.175,0.529 -0.349,1.058 -0.523,1.588 5.182,1.682 10.363,3.363 15.545,5.045 -0.04,0.21 -0.08,0.42 -0.12,0.631 l -7.911,-0.797 c -0.198,0.417 -0.397,0.834 -0.595,1.251 1.671,0.902 3.259,2.044 5.031,2.661 4.383,1.524 9.114,2.297 13.177,4.396 2.165,1.118 4.906,4.714 4.511,6.582 -1.811,8.564 0.618,16.581 1.843,24.775 0.168,1.124 0.29,2.255 0.476,3.724 -2.436,-0.144 -4.626,-0.273 -7.108,-0.42 -0.194,1.746 -0.348,3.133 -0.537,4.824 -0.878,-0.109 -1.693,-0.402 -2.429,-0.268 -2.491,0.457 -5.086,0.791 -7.311,1.859 -0.415,0.199 0.933,3.563 1.043,5.491 0.133,2.334 -0.285,4.696 -0.277,7.046 0.008,2.363 0.246,4.725 0.383,7.087 0.46,0.265 0.92,0.53 1.38,0.795 0.541,-1.519 1.083,-3.037 1.499,-4.202 8.734,9.814 15.707,19.462 29.32,19.265 9.913,-0.144 19.842,0.298 29.741,-0.091 3.096,-0.122 6.133,-2.063 9.174,-3.232 3.579,-1.375 5.988,-5.065 11.031,-3.921 1.723,0.39 5.402,-3.783 6.765,-6.567 5.923,-12.09 5.664,-24.286 -0.819,-36.22 C 72.067,22.34 71.276,21.379 71.014,20.292 67.693,6.531 56.764,-0.461 46.051,-7.482 c -4.688,-3.073 -9.783,-5.699 -15.006,-7.72 -3.696,-1.431 -7.917,-1.506 -11.898,-2.186 -1.854,-11.402 -3.596,-22.111 -5.337,-32.82 0.385,-0.1 0.772,-0.2 1.157,-0.3 0.524,2.179 1.26,4.334 1.526,6.544 0.526,4.364 0.517,8.808 1.277,13.123 0.386,2.19 1.963,4.171 3.767,6.208 0,-1.988 0.344,-4.05 -0.059,-5.952 -1.787,-8.421 -3.264,-16.964 -5.888,-25.131 -1.913,-5.956 -0.606,-11.352 0.281,-17.002 0.185,-1.181 0.595,-2.853 0.01,-3.544 -3.157,-3.719 -0.603,-6.23 0.973,-9.559 1.443,-3.051 1.067,-6.974 1.375,-10.523 0.016,-0.173 -1.103,-0.445 -2.287,-0.897"
             style="fill:#231f20;fill-opacity:1;fill-rule:evenodd;stroke:none"
             id="path24" /></g><g
           id="g26"
           transform="translate(267.7759,461.0137)"><path
             d="m 0,0 c -1.982,4.182 -5.555,7.197 -14.647,11.491 -3.278,1.549 -4.015,3.18 -3.783,6.838 0.211,3.331 -0.896,7.494 -2.994,9.944 -1.273,1.489 -5.159,1.544 -7.882,2.439 -9.523,3.132 -20.852,-6.161 -20.775,-16.413 0.989,0.072 1.977,0.143 3.212,0.233 -2.117,-7.508 -4.093,-14.521 -6.069,-21.534 -0.369,0.087 -0.737,0.175 -1.105,0.263 0.779,5.527 1.559,11.054 2.337,16.582 -3.961,-10.164 -5.68,-21.106 -12.868,-30.094 -0.752,4.315 -1.515,8.702 -2.28,13.089 -0.244,-0.06 -0.487,-0.12 -0.731,-0.18 -0.175,-3.006 -0.35,-6.012 -0.525,-9.017 -0.372,-0.054 -0.744,-0.107 -1.118,-0.161 -1.085,3.214 -2.171,6.427 -3.257,9.64 -0.413,0.001 -0.825,0.002 -1.238,0.003 -0.381,-2.635 -0.472,-5.353 -1.199,-7.889 -2.475,-8.623 0.051,-16.63 3.284,-24.318 2.047,-4.868 7.402,-7.582 10.84,-5.957 5.195,2.456 10.928,4.813 14.812,8.794 8.892,9.117 16.606,19.353 22.093,30.994 1.817,3.853 2.993,8.009 4.192,11.294 3.8,-0.316 6.995,-0.581 11.311,-0.939 C -6.993,3.388 -6.2,-1.814 0,0 m -49.843,58.909 h 5.677 v -2.107 c 2.582,1.538 4.933,2.939 7.251,4.32 3.607,-4.98 6.958,-9.604 10.467,-14.449 3.475,4.404 3.475,4.404 -1.359,5.957 -0.104,1.621 -0.214,3.353 -0.39,6.112 1.492,-1.792 2.357,-2.831 2.396,-2.878 2.597,0.198 4.955,1.118 5.956,0.326 4.782,-3.784 11.872,-4.24 14.955,-10.588 0.589,-1.212 3.06,-1.51 3.46,-2.523 2.524,-8.916 5.048,-17.831 7.855,-27.746 -3.033,1.974 -5.176,3.368 -7.32,4.762 -0.294,-0.24 -0.589,-0.48 -0.884,-0.72 0.749,-1.217 1.216,-2.856 2.296,-3.581 5.007,-3.356 5.52,-7.82 4.777,-13.425 -1.66,-12.52 -4.342,-24.713 -12.028,-34.93 -5.274,-7.009 -11.742,-13.115 -17.605,-19.688 -2.872,-3.22 -5.239,-6.982 -8.469,-9.763 -2.761,-2.378 -6.234,-4.386 -9.728,-5.374 -13.813,-3.903 -26.482,-0.727 -38.113,7.289 -1.222,0.842 -2.312,1.874 -4.325,3.524 3.914,-0.385 6.479,-0.638 9.904,-0.974 -3.967,6.46 -7.891,11.323 -10.096,16.87 -2.186,5.501 -2.642,11.69 -3.924,17.907 -0.396,-1.049 -0.702,-1.862 -1.181,-3.133 -0.23,0.884 -0.426,1.298 -0.435,1.716 -0.291,13.609 2.879,26.384 9.715,38.137 2.631,4.525 5.983,8.625 8.849,13.02 2.43,3.726 4.411,7.759 6.988,11.372 5.142,7.204 10.558,14.213 15.311,20.567"
             style="fill:#231f20;fill-opacity:1;fill-rule:evenodd;stroke:none"
             id="path28" /></g><g
           id="g30"
           transform="translate(440.1533,516.1299)"><path
             d="M 0,0 C 0.509,-0.113 1.019,-0.226 1.528,-0.338 3.26,1.746 6.542,3.503 1.624,7.005 1.082,4.67 0.542,2.335 0,0 m 23.274,-16.212 c 0.83,2.049 1.661,4.099 2.701,6.665 -5.752,-29.76 -11.376,-58.853 -16.999,-87.936 0.3,4.174 0.605,8.401 0.91,12.628 -0.552,0.104 -1.104,0.208 -1.655,0.313 -3.599,-9.443 -3.377,-19.783 -5.049,-29.678 -0.484,0.069 -0.968,0.138 -1.452,0.206 1.34,18.197 2.68,36.394 4.02,54.59 -0.284,0.043 -0.567,0.085 -0.852,0.127 C 3.24,-70 1.69,-80.723 -0.125,-91.4 c -0.822,-4.832 -2.805,-9.53 -3.154,-14.368 -0.661,-9.135 -0.452,-18.332 -0.766,-27.496 -0.074,-2.187 -0.784,-4.351 -1.244,-6.747 -6.806,9.485 -4.733,19.652 -3.961,29.655 -0.412,0.024 -0.824,0.049 -1.236,0.074 -0.719,-6.716 -1.439,-13.434 -2.191,-20.455 -4.463,7.696 -3.346,14.991 -0.82,22.907 2.32,7.266 5.326,15.734 3.595,22.545 -2.744,10.788 -0.262,20.556 0.938,30.719 0.679,5.747 1.649,11.481 2.896,17.131 0.752,3.409 2.287,6.645 3.689,10.569 -3.987,5.292 2.677,12.078 -0.272,18.758 -1.512,-0.203 -3.102,-0.415 -4.993,-0.669 -1.243,3.193 -2.107,5.075 -6.214,1.495 -2.425,-2.114 -7.748,-0.901 -12.833,-1.26 4.069,6.693 7.305,11.994 10.478,17.334 0.084,0.14 -0.521,0.689 -1.274,1.639 -3.699,-4.435 -7.213,-8.653 -10.845,-13.011 -3.109,1.633 -5.073,2.944 -1.976,6.358 1.211,1.335 1.26,3.725 2.217,6.889 3.864,0.454 8.875,0.427 13.504,1.743 5.776,1.642 12.358,0.819 17.275,5.52 1.175,1.123 3.461,1.085 5.236,1.581 0.131,-0.422 0.261,-0.844 0.391,-1.265 1.158,1.927 2.315,3.854 3.831,6.38 2.099,-3.488 3.471,-3.472 5.505,-0.511 1.5,2.181 4.282,3.483 6.491,5.177 0.401,-0.446 0.802,-0.892 1.205,-1.337 -2.809,-2.905 -5.619,-5.81 -8.689,-8.983 2.372,-0.895 3.981,-1.501 5.782,-2.181 0.507,1.667 1.042,3.428 1.596,5.254 0.969,-0.227 1.769,-0.222 1.85,-0.461 2.125,-6.253 7.333,-4.865 11.929,-4.796 5.826,0.088 11.663,0.67 17.467,0.417 4.062,-0.178 8.064,-1.485 12.12,-2.112 1.642,-0.254 3.355,-0.042 5.077,-1.147 -5.852,-0.514 -11.704,-1.029 -17.556,-1.543 0.062,-0.352 0.127,-0.704 0.189,-1.056 H 93.469 C 93.49,11.258 93.512,11.169 93.532,11.08 89.933,10.892 86.333,10.703 81.517,10.451 83.096,9.4 83.331,9.164 83.614,9.068 84.916,8.629 86.229,8.229 87.539,7.814 87.324,7.246 87.23,6.283 86.876,6.174 85.148,5.646 83.358,5.073 81.575,5.016 76.785,4.862 71.986,4.963 65.891,4.963 67.903,3.629 68.775,3.051 69.672,2.457 66.506,1.843 63.368,1.234 60.231,0.625 l 0.056,-0.67 C 62.308,-0.191 64.328,-0.336 66.35,-0.481 53.863,-4.292 41.187,-5.39 26.46,-5.425 25.508,-7.742 23.858,-11.756 22.208,-15.77 Z"
             style="fill:#231f20;fill-opacity:1;fill-rule:evenodd;stroke:none"
             id="path32" /></g><g
           id="g34"
           transform="translate(154.0742,280.6201)"><path
             d="m 0,0 c -10.803,5.748 -5.395,15.311 -4.687,23.887 1.171,14.199 2.412,28.392 3.557,42.593 0.068,0.856 -0.451,1.758 -0.84,3.152 C -6.426,64.271 -10.7,59.5 -14.559,54.413 -22.227,44.305 -28.593,33.448 -32.355,21.227 c -2.857,-9.28 -7.712,-16.753 -17.742,-19.29 -5.337,11.19 -1.404,22.715 0.428,34.264 0.982,6.193 1.911,12.395 1.794,18.83 -1.016,-3.503 -2.033,-7.007 -3.049,-10.51 -0.271,0.059 -0.543,0.118 -0.815,0.176 0.999,7.479 1.999,14.958 2.999,22.437 -0.469,0.111 -0.937,0.222 -1.406,0.334 -4.77,-9.179 -9.865,-18.298 -11.799,-28.614 -2.061,-10.995 -3.399,-22.125 -5.018,-32.967 -1.998,-0.736 -3.339,-1.229 -4.491,-1.653 -1.48,1.235 -2.737,3.156 -4.255,3.39 -5.114,0.79 -5.083,4.379 -5.094,8.094 -0.037,12.762 1.718,25.246 6.912,36.978 4.847,10.945 10.075,21.722 15.315,32.485 1.147,2.354 2.875,4.509 4.675,6.438 1.673,1.793 2.954,5.418 6.644,2.312 0.491,-0.413 2.308,0.747 2.21,0.712 1.776,-1.407 2.848,-2.265 3.931,-3.11 0.512,-0.398 1.541,-0.853 1.493,-1.144 -0.917,-5.534 4.222,-9.315 3.573,-15.361 -0.773,-7.199 1.457,-14.721 2.422,-22.384 5,0.621 3.454,5.826 5.51,8.5 2.36,3.069 4.033,6.657 6.139,9.933 2.054,3.195 4.278,6.281 6.647,9.736 0.583,-1.456 1.214,-3.034 1.897,-4.74 3.066,2.601 6.363,5.474 9.748,8.238 2.061,1.681 3.762,2.311 6.465,0.094 C 4.5,82.993 7.94,83.678 11.798,83.308 11.959,76.916 12.244,69.435 12.316,61.951 12.47,45.966 12.549,29.979 12.567,13.992 12.57,11.18 12.283,8.34 11.805,5.568 11.625,4.526 10.522,3.645 9.84,2.689 9.631,3.769 9.143,4.88 9.262,5.922 9.802,10.681 10.514,15.42 10.466,20.398 7.569,13.242 9.806,3.739 0,0"
             style="fill:#231f20;fill-opacity:1;fill-rule:evenodd;stroke:none"
             id="path36" /></g><g
           id="g38"
           transform="translate(418.9531,316.8154)"><path
             d="M 0,0 C 0.239,0.227 0.479,0.455 0.719,0.682 -2.505,4.666 -5.729,8.649 -8.953,12.633 -9.488,12.09 -10.022,11.549 -10.559,11.006 -7.039,7.338 -3.519,3.669 0,0 m 11.394,-33.899 c -0.169,0.319 -0.937,1.154 -1.041,2.065 -1.152,9.965 -9.081,15.029 -15.361,21.218 -6.024,5.937 -12.324,11.595 -18.505,17.376 -0.359,-0.301 -0.718,-0.602 -1.078,-0.902 l 12.024,-12.454 c -0.197,-0.239 -0.393,-0.478 -0.589,-0.718 -3.406,2.896 -6.811,5.792 -11.458,9.745 0.664,-6.046 1.201,-10.932 1.77,-16.114 -0.821,1.085 -1.597,2.112 -3.119,4.121 -0.046,-8.315 1.3,-16.985 -9.857,-17.704 v -6.797 c -0.63,-0.007 -1.261,-0.015 -1.891,-0.022 v 6.826 c -1.102,-0.616 -1.931,-1.08 -2.977,-1.666 -7.816,13.018 -7.049,27.145 -5.875,41.26 0.34,4.09 1.514,8.119 2.443,12.145 0.208,0.905 0.855,1.806 1.525,2.489 3.405,3.471 6.552,8.426 12.798,2.764 -1.209,4.253 -2.418,8.506 -3.918,13.788 6.801,-7.001 12.885,-12.893 18.528,-19.181 5.613,-6.254 11.342,-12.211 19.274,-16.644 0.632,8.374 0.856,15.642 1.854,22.8 0.499,3.576 -0.866,8.448 4.471,10.102 0.298,0.092 0.397,0.87 0.566,1.337 1.887,5.224 3.77,10.45 5.655,15.675 l 0.993,-0.92 c 1.518,0.492 3.035,0.983 5.308,1.718 V 47.651 c 0.241,-0.082 0.483,-0.163 0.724,-0.245 0.649,1.322 1.297,2.643 1.945,3.964 0.309,-0.015 0.619,-0.03 0.927,-0.046 -0.183,-1.717 -0.479,-3.429 -0.532,-5.15 -0.206,-6.671 -1.684,-13.129 0.327,-20.075 1.489,-5.147 -0.188,-11.192 -0.356,-16.84 -0.232,-7.744 -0.482,-15.491 -0.484,-23.238 -10e-4,-2.44 0.689,-4.898 1.202,-7.318 0.914,-4.308 -3.466,-13.48 -7.429,-14.163 -2.304,-0.397 -4.901,0.911 -7.864,1.561"
             style="fill:#231f20;fill-opacity:1;fill-rule:evenodd;stroke:none"
             id="path40" /></g><g
           id="g42"
           transform="translate(188.8486,313.1104)"><path
             d="m 0,0 c 10.591,-0.579 11.385,0.076 12.277,8.955 0.066,0.652 0.261,1.291 0.359,1.941 1.162,7.721 2.317,15.443 3.474,23.166 C 11.142,25.181 7.044,16.021 3.092,6.798 2.688,5.853 3.155,4.535 3.283,2.183 3.264,2.17 2.105,1.399 0,0 m 41.402,0.885 c -3.056,-1.201 -6.114,-2.402 -9.17,-3.603 0.092,-0.274 0.184,-0.55 0.276,-0.824 1.88,0.165 3.761,0.331 5.641,0.496 0.017,-0.148 0.034,-0.298 0.05,-0.446 -4.643,-1.61 -9.285,-3.219 -14.048,-4.869 -1.599,-8.597 3.61,-18.076 -3.187,-25.294 -8.946,4.895 -8.629,14.114 -8.82,23.386 -4.909,-0.96 -9.375,-1.717 -13.766,-2.788 -0.868,-0.211 -1.6,-1.536 -2.113,-2.498 -0.537,-1.006 -0.648,-2.229 -1.096,-3.294 -1.695,-4.021 -3.45,-8.016 -5.616,-13.022 -2.001,3.443 -3.106,5.342 -4.313,7.419 -0.533,-0.243 -1.403,-0.641 -2.961,-1.352 0,2.846 -0.632,5.604 0.116,7.914 2.528,7.825 5.536,15.494 8.379,23.215 2.997,8.142 5.73,16.398 9.121,24.372 2.526,5.944 5.919,11.517 8.918,17.26 1.229,2.356 2.833,4.607 3.568,7.111 1.379,4.697 4.529,6.892 8.963,8.26 1.822,0.562 3.238,2.44 5.463,3.333 -0.771,-1.46 -1.542,-2.919 -2.128,-4.029 3.719,-9.311 6.505,-18.121 3.68,-28.318 -2.363,-8.533 -2.86,-17.585 -4.165,-26.41 -0.418,-2.83 0.283,-4.349 3.708,-4.091 4.365,0.332 8.774,0.081 13.164,0.081 0.111,-0.67 0.224,-1.34 0.336,-2.009"
             style="fill:#231f20;fill-opacity:1;fill-rule:evenodd;stroke:none"
             id="path44" /></g><g
           id="g46"
           transform="translate(323.791,317.6514)"><path
             d="m 0,0 c 0,-4.7 -0.564,-8.689 0.173,-12.421 0.629,-3.179 2.123,-7.794 4.387,-8.621 2.66,-0.972 7.476,0.473 9.766,2.59 9.01,8.336 16.086,18.089 17.591,30.841 0.621,5.257 -0.866,7.418 -5.843,8.618 C 20.466,22.359 13.602,17.177 14.076,12.313 14.401,8.977 13.831,5.554 13.661,2.17 13.158,2.218 12.656,2.267 12.153,2.315 12.412,4.32 12.671,6.326 12.929,8.331 12.765,8.372 12.6,8.414 12.435,8.455 10.539,3.247 8.643,-1.962 6.601,-7.574 4.198,-4.817 2.577,-2.956 0,0 m -12.993,-15.309 c 0.559,2.604 1.6,5.208 1.596,7.81 -0.019,10.35 5.186,23.382 13.02,30.18 -1.885,-3.098 -3.168,-5.206 -4.451,-7.314 0.347,-0.234 0.694,-0.467 1.041,-0.7 2.172,3.168 4.295,6.37 6.528,9.494 2.935,4.107 5.523,8.608 9.123,12.032 1.795,1.708 5.495,1.487 8.363,1.972 1.989,0.338 4.026,0.393 5.835,0.556 1.741,-1.453 3.433,-3.278 5.488,-4.494 4.375,-2.594 7.547,-5.526 9.46,-10.786 3.917,-10.772 3.427,-21.146 -1.004,-31.213 -2.208,-5.015 -6.268,-9.225 -9.568,-13.743 -1.075,-1.47 -2.429,-2.732 -3.596,-4.139 -9.885,-11.917 -20.363,-13.151 -33.654,-3.531 1.462,0.18 2.532,0.311 4.513,0.554 -7.563,9.059 -10.017,19.029 -8.751,30.084 v -19.435 c -1.586,1.08 -2.767,1.883 -3.949,2.688 z"
             style="fill:#231f20;fill-opacity:1;fill-rule:evenodd;stroke:none"
             id="path48" /></g><g
           id="g50"
           transform="translate(310.792,302.3574)"><path
             d="m 0,0 c -10.749,-3.368 -21.498,-6.736 -32.248,-10.104 0.081,-0.278 0.162,-0.555 0.243,-0.833 3.015,0.638 6.028,1.276 9.042,1.914 0.129,-0.329 0.258,-0.658 0.387,-0.986 -1.616,-0.68 -3.191,-1.49 -4.858,-2.008 -1.731,-0.537 -3.587,-0.671 -5.325,-1.191 -7.781,-2.326 -15.542,-4.714 -23.302,-7.105 -4.086,-1.259 -8.104,-2.8 -12.255,-3.772 -2.263,-0.53 -5.005,1.555 -6.967,-1.173 -0.582,1.023 -1.644,2.036 -1.663,3.07 -0.084,4.452 -0.004,8.917 0.272,13.363 1.236,19.901 2.558,39.798 3.856,59.695 0.224,3.429 0.482,6.856 1.519,10.325 0.235,-0.517 0.471,-1.035 0.806,-1.769 1.788,2.802 3.253,5.22 -1.049,7.105 -0.682,0.299 -0.69,2.138 -0.942,3.025 3.959,-1.928 7.61,-2.817 9.942,-5.071 2.792,-2.699 6.407,-6.635 6.288,-9.914 -0.668,-18.343 -0.332,-36.853 -4.908,-54.877 9.764,-3.641 18.633,2.469 28.114,3.493 2.358,0.255 4.67,0.941 7.227,0.514 -4.075,-1.233 -8.152,-2.467 -12.228,-3.7 0.077,-0.154 0.155,-0.309 0.233,-0.464 10.983,1.543 21.967,3.087 32.952,4.63 C -4.807,3.874 -4.75,3.581 -4.692,3.289 -6.595,2.586 -8.496,1.882 -11.744,0.681 -6.893,0.397 -3.449,0.196 0,-0.01 0.006,-0.015 0,0 0,0"
             style="fill:#231f20;fill-opacity:1;fill-rule:evenodd;stroke:none"
             id="path52" /></g><g
           id="g54"
           transform="translate(452.8691,347.4951)"><path
             d="M 0,0 C 3.007,0.221 5.516,0.404 8.026,0.589 8.018,1.172 8.008,1.756 7.999,2.34 5.927,2.572 3.855,2.805 1.559,3.062 1.928,4.063 2.31,5.099 2.73,6.24 1.151,6.559 -0.332,6.858 -2.748,7.347 c 6.744,4.69 15.755,5.034 17.796,13.787 1.826,-0.144 3.342,-0.263 4.855,-0.382 -0.091,1.133 -0.181,2.266 -0.36,4.484 1.339,-1.563 2.618,-2.375 2.787,-3.374 0.741,-4.377 3.543,-4.353 6.962,-3.866 8.024,1.144 16.074,2.114 24.113,3.154 0.335,-0.562 0.67,-1.125 1.006,-1.687 -1.291,-0.76 -2.581,-1.52 -4.404,-2.595 2.224,-0.161 3.662,-0.264 5.098,-0.37 0.169,-0.352 0.338,-0.705 0.507,-1.059 C 51.575,12.895 47.538,10.348 43.553,7.835 43.699,7.785 44.361,7.562 45.024,7.338 44.864,7.104 44.742,6.712 44.533,6.658 38.109,5.018 31.651,3.502 25.267,1.724 23.882,1.338 21.917,0.229 21.651,-0.888 20.394,-6.166 19.632,-11.562 18.566,-17.65 c 2.668,0.377 4.726,0.668 6.524,0.922 3.387,-5.131 9.601,-1.946 14.714,-5.122 -2.379,-0.632 -3.897,-1.037 -5.432,-1.445 0.718,-1.923 1.422,-3.807 1.899,-5.086 -4.144,-1.803 -7.736,-3.352 -11.315,-4.929 -0.902,-0.397 -1.73,-0.988 -2.656,-1.3 -5.336,-1.807 -7.039,-4.611 -6.222,-10.384 1.273,-8.99 6.539,-11.37 14.593,-7.772 10.069,4.5 20.559,8.056 30.868,12.02 0.164,-0.379 0.328,-0.757 0.492,-1.136 -4.002,-2.188 -8.003,-4.377 -12.688,-6.94 1.696,-0.674 2.258,-0.897 2.074,-0.824 -3.314,-2.838 -6.528,-6.366 -10.433,-8.77 -8.553,-5.267 -18.21,-7.681 -28.115,-6.714 -2.727,0.266 -5.033,4.867 -7.533,7.48 3.891,3.771 -1.76,6.089 -1.42,9.323 0.235,2.231 0.784,4.494 0.599,6.692 -0.296,3.504 -1.042,6.977 -1.697,10.444 -0.172,0.91 -0.705,1.751 -0.545,1.369 1.385,2.255 2.543,3.365 2.767,4.64 0.974,5.55 1.317,11.23 2.586,16.702 1.036,4.472 0.14,6.726 -4.657,7.008 C 1.999,-1.414 1.076,-0.557 0,0"
             style="fill:#231f20;fill-opacity:1;fill-rule:evenodd;stroke:none"
             id="path56" /></g><g
           id="g58"
           transform="translate(176.6406,422.3022)"><path
             d="M 0,0 C -8.246,15.682 -1.806,54.892 18.616,72.534 13.506,62.102 7.275,50.715 2.279,38.811 -2.944,26.365 -1.373,13.121 0,0"
             style="fill:#231f20;fill-opacity:1;fill-rule:evenodd;stroke:none"
             id="path60" /></g><g
           id="g62"
           transform="translate(180.7593,525.4175)"><path
             d="m 0,0 c 4.814,-1.54 8.671,-2.383 12.07,-4.121 0.904,-0.462 0.402,-3.671 0.546,-5.62 -0.56,-0.179 -1.119,-0.358 -1.679,-0.537 C 9.549,-9.03 8.163,-7.783 7.748,-7.409 4.438,-6.898 1.821,-7.131 0.16,-5.982 -0.737,-5.362 0,-2.379 0,0"
             style="fill:#231f20;fill-opacity:1;fill-rule:evenodd;stroke:none"
             id="path64" /></g><g
           id="g66"
           transform="translate(83.7778,553.0986)"><path
             d="m 0,0 c -1.698,2.774 -3.483,4.39 -3.572,6.094 -0.215,4.138 4.1,3.222 6.303,4.734 C 3.851,9.027 6.126,6.967 5.794,5.494 5.396,3.73 2.772,2.469 0,0"
             style="fill:#231f20;fill-opacity:1;fill-rule:evenodd;stroke:none"
             id="path68" /></g><g
           id="g70"
           transform="translate(464.374,558.8413)"><path
             d="M 0,0 C 2.37,-2.531 3.696,-3.946 5.022,-5.362 3.021,-7.141 1.081,-9.009 -1.103,-10.524 -1.272,-10.642 -4.25,-8.011 -4.027,-7.144 -3.465,-4.955 -1.821,-3.043 0,0"
             style="fill:#231f20;fill-opacity:1;fill-rule:evenodd;stroke:none"
             id="path72" /></g><g
           id="g74"
           transform="translate(236.6968,535.9395)"><path
             d="M 0,0 C 0.56,-3.326 1.19,-6.583 -2.864,-6.803 -4.084,-6.87 -6.612,-4.176 -6.537,-2.86 -6.302,1.277 -3.074,0.496 0,0"
             style="fill:#231f20;fill-opacity:1;fill-rule:evenodd;stroke:none"
             id="path76" /></g><g
           id="g78"
           transform="translate(209.9863,527.6865)"><path
             d="M 0,0 C -2.937,-4.136 -5.653,-7.961 -9.106,-12.824 -7.763,-4.885 -4.227,0.041 0,0"
             style="fill:#231f20;fill-opacity:1;fill-rule:evenodd;stroke:none"
             id="path80" /></g><g
           id="g82"
           transform="translate(116.7988,401.8467)"><path
             d="M 0,0 C -0.902,-2.906 -1.607,-5.178 -2.312,-7.449 -3.467,-6.312 -5.353,-5.327 -5.63,-4.005 -6.294,-0.845 -4.257,0.324 0,0"
             style="fill:#231f20;fill-opacity:1;fill-rule:evenodd;stroke:none"
             id="path84" /></g><g
           id="g86"
           transform="translate(398.2197,514.0195)"><path
             d="M 0,0 C -4.129,4.618 -3.518,6.136 3.708,7.827 2.269,4.788 1.198,2.528 0,0"
             style="fill:#231f20;fill-opacity:1;fill-rule:evenodd;stroke:none"
             id="path88" /></g><g
           id="g90"
           transform="translate(317.001,356.9922)"><path
             d="M 0,0 C 5.264,-0.367 6.866,-1.531 6.205,-4.827 3.78,-3.592 1.519,-2.438 -0.743,-1.285 -0.495,-0.856 -0.248,-0.429 0,0"
             style="fill:#231f20;fill-opacity:1;fill-rule:evenodd;stroke:none"
             id="path92" /></g></g></g></g></svg>
